<?xml version="1.0" encoding="utf-8"?>
<!-- Generator: Adobe Illustrator 22.0.1, SVG Export Plug-In . SVG Version: 6.00 Build 0)  -->
<svg version="1.1" id="Capa_1" xmlns="http://www.w3.org/2000/svg" xmlns:xlink="http://www.w3.org/1999/xlink" x="0px" y="0px"
	 viewBox="0 0 142 140.8" style="enable-background:new 0 0 142 140.8;" xml:space="preserve">
<style type="text/css">
	.st0{fill:#004462;}
</style>
<g>
	<path class="st0" d="M71,1.4c-38.1,0-69,30.9-69,69c0,38.1,30.9,69,69,69c38.1,0,69-30.9,69-69C140,32.3,109.1,1.4,71,1.4L71,1.4z
		 M97.3,36.6l-9.5,0c-7.5,0-8.9,3.6-8.9,8.8v11.5h17.8l0,18H78.8v46.2H60.2V74.9H44.7v-18h15.6V43.5c0-15.4,9.4-23.8,23.2-23.8
		l13.9,0L97.3,36.6L97.3,36.6z M97.3,36.6"/>
</g>
</svg>
