<?xml version="1.0" encoding="utf-8"?>
<!-- Generator: Adobe Illustrator 22.0.1, SVG Export Plug-In . SVG Version: 6.00 Build 0)  -->
<svg version="1.1" id="Capa_1" xmlns="http://www.w3.org/2000/svg" xmlns:xlink="http://www.w3.org/1999/xlink" x="0px" y="0px"
	 viewBox="0 0 142 140.8" style="enable-background:new 0 0 142 140.8;" xml:space="preserve">
<style type="text/css">
	.st0{fill:#DF3176;}
</style>
<g>
	<g>
		<path class="st0" d="M84.2,70.4c0,7.3-5.9,13.2-13.2,13.2s-13.2-5.9-13.2-13.2S63.7,57.2,71,57.2S84.2,63.1,84.2,70.4L84.2,70.4z"
			/>
		<path class="st0" d="M101.8,47.1c-0.6-1.7-1.6-3.3-3-4.5c-1.3-1.3-2.8-2.3-4.5-3c-1.4-0.5-3.5-1.2-7.3-1.4C82.8,38,81.6,38,71,38
			s-11.8,0-16,0.2c-3.9,0.2-5.9,0.8-7.3,1.4c-1.7,0.6-3.3,1.6-4.5,3c-1.3,1.3-2.3,2.8-3,4.5c-0.5,1.4-1.2,3.5-1.4,7.3
			c-0.2,4.2-0.2,5.4-0.2,16s0,11.8,0.2,16c0.2,3.9,0.8,5.9,1.4,7.3c0.6,1.7,1.6,3.3,3,4.5c1.3,1.3,2.8,2.3,4.5,3
			c1.4,0.5,3.5,1.2,7.3,1.4c4.2,0.2,5.4,0.2,16,0.2s11.8,0,16-0.2c3.9-0.2,5.9-0.8,7.3-1.4c3.4-1.3,6.2-4.1,7.5-7.5
			c0.5-1.4,1.2-3.5,1.4-7.3c0.2-4.2,0.2-5.4,0.2-16s0-11.8-0.2-16C103,50.6,102.4,48.5,101.8,47.1L101.8,47.1z M71,90.7
			c-11.2,0-20.3-9.1-20.3-20.3S59.8,50.1,71,50.1s20.3,9.1,20.3,20.3S82.2,90.7,71,90.7L71,90.7z M92.1,54.1c-2.6,0-4.7-2.1-4.7-4.7
			c0-2.6,2.1-4.7,4.7-4.7s4.7,2.1,4.7,4.7C96.8,51.9,94.7,54.1,92.1,54.1L92.1,54.1z"/>
		<path class="st0" d="M71,1.6C33,1.6,2.1,32.4,2.1,70.4S33,139.3,71,139.3s68.9-30.8,68.9-68.9S109,1.6,71,1.6L71,1.6z M110.3,86.7
			c-0.2,4.2-0.9,7.1-1.8,9.6c-2.1,5.3-6.3,9.5-11.6,11.6c-2.5,1-5.4,1.6-9.6,1.8c-4.2,0.2-5.6,0.2-16.3,0.2s-12.1,0-16.3-0.2
			s-7.1-0.9-9.6-1.8c-2.6-1-5-2.5-7-4.6c-2-2-3.6-4.4-4.6-7c-1-2.5-1.6-5.4-1.8-9.6c-0.2-4.2-0.2-5.6-0.2-16.3s0-12.1,0.2-16.3
			s0.9-7.1,1.8-9.6c1-2.6,2.5-5,4.6-7c2-2,4.4-3.6,7-4.6c2.5-1,5.4-1.6,9.6-1.8c4.2-0.2,5.6-0.2,16.3-0.2s12.1,0,16.3,0.2
			c4.2,0.2,7.1,0.9,9.6,1.8c2.6,1,5,2.5,7,4.6c2,2,3.6,4.4,4.6,7c1,2.5,1.6,5.4,1.8,9.6c0.2,4.2,0.2,5.6,0.2,16.3
			S110.5,82.5,110.3,86.7L110.3,86.7z"/>
	</g>
</g>
</svg>
