<?xml version="1.0" encoding="utf-8"?>
<!-- Generator: Adobe Illustrator 22.0.1, SVG Export Plug-In . SVG Version: 6.00 Build 0)  -->
<svg version="1.1" id="Capa_1" xmlns="http://www.w3.org/2000/svg" xmlns:xlink="http://www.w3.org/1999/xlink" x="0px" y="0px"
	 viewBox="0 0 200 200" style="enable-background:new 0 0 200 200;" xml:space="preserve">
<style type="text/css">
	.st0{fill:#4CAF50;}
</style>
<g>
	<path class="st0" d="M100,2.5C46.2,2.5,2.5,46.2,2.5,100s43.7,97.5,97.5,97.5s97.5-43.7,97.5-97.5S153.8,2.5,100,2.5L100,2.5z
		 M102.1,156.8C102.1,156.8,102.1,156.8,102.1,156.8L102.1,156.8c-9.8,0-19.4-2.5-27.9-7.1l-30.9,8.1l8.3-30.2
		c-5.1-8.8-7.8-18.9-7.8-29.2c0-32.2,26.2-58.3,58.4-58.3c15.6,0,30.3,6.1,41.3,17.1c11,11,17.1,25.7,17.1,41.3
		C160.4,130.6,134.2,156.8,102.1,156.8L102.1,156.8z M102.1,156.8"/>
	<path class="st0" d="M102.1,49.9c-26.8,0-48.5,21.7-48.5,48.5c0,9.2,2.6,18.1,7.4,25.8l1.2,1.8l-4.9,17.9l18.4-4.8l1.8,1.1
		c7.4,4.4,16,6.8,24.7,6.8h0c26.7,0,48.5-21.8,48.5-48.5c0-13-5-25.1-14.2-34.3C127.2,55,115,49.9,102.1,49.9L102.1,49.9z
		 M130.6,119.2c-1.2,3.4-7,6.5-9.8,6.9c-2.5,0.4-5.7,0.5-9.2-0.6c-2.1-0.7-4.8-1.6-8.3-3.1c-14.6-6.3-24.2-21-24.9-22
		c-0.7-1-6-7.9-6-15.1c0-7.2,3.8-10.7,5.1-12.2c1.3-1.5,2.9-1.8,3.9-1.8c1,0,1.9,0,2.8,0.1c0.9,0,2.1-0.3,3.3,2.5
		c1.2,2.9,4.1,10.1,4.5,10.8c0.4,0.7,0.6,1.6,0.1,2.6c-0.5,1-2.1,3.1-3.6,5c-0.6,0.8-1.5,1.5-0.6,3c0.8,1.5,3.8,6.2,8.1,10.1
		c5.6,5,10.3,6.5,11.7,7.2c1.5,0.7,2.3,0.6,3.2-0.4c0.8-1,3.6-4.3,4.6-5.7c1-1.5,1.9-1.2,3.3-0.7c1.3,0.5,8.5,4,10,4.7
		c1.5,0.7,2.4,1.1,2.8,1.7C131.8,112.9,131.8,115.8,130.6,119.2L130.6,119.2z M130.6,119.2"/>
</g>
</svg>
